<svg width="11" height="7" viewBox="0 0 11 7" fill="none" xmlns="http://www.w3.org/2000/svg">
<path d="M5.58253 2.25849L1.92553 5.91554C1.85897 5.98854 1.77842 6.04754 1.68866 6.08894C1.5989 6.13034 1.50174 6.15334 1.40294 6.15654C1.30414 6.15974 1.20571 6.14304 1.11346 6.10754C1.02122 6.07194 0.937051 6.01834 0.865921 5.94964C0.794791 5.88104 0.738161 5.79874 0.699381 5.70784C0.660601 5.61694 0.640461 5.51914 0.640141 5.42029C0.639821 5.32144 0.659341 5.22353 0.697541 5.13235C0.735741 5.04118 0.791841 4.9586 0.862531 4.8895L0.880531 4.8715L5.05953 0.691487C5.19811 0.552937 5.38606 0.475098 5.58203 0.475098C5.778 0.475098 5.96594 0.552937 6.10453 0.691487L10.2835 4.87049C10.3533 4.93793 10.4091 5.01845 10.4478 5.10746C10.4865 5.19647 10.5073 5.29223 10.5089 5.38927C10.5106 5.4863 10.4931 5.58274 10.4575 5.67304C10.422 5.76334 10.3689 5.84574 10.3015 5.91554C10.2341 5.98534 10.1535 6.04114 10.0645 6.07984C9.97553 6.11844 9.87983 6.13924 9.78273 6.14094C9.68573 6.14264 9.58933 6.12514 9.49903 6.08954C9.40873 6.05394 9.32633 6.00094 9.25653 5.93354L9.23853 5.91554L5.58253 2.25849Z" fill="#F7F9FB"/>
</svg>
